<svg width="58" height="70" viewBox="0 0 58 70" fill="none" xmlns="http://www.w3.org/2000/svg">
<g clip-path="url(#clip0_156_4113)">
<path d="M55.363 24.1221C50.7545 26.9698 47.9081 31.8517 47.9081 37.276C47.9081 43.3783 51.5678 48.9383 57.125 51.2436C56.0407 54.7694 54.4142 58.024 52.381 61.0073C49.3991 65.2112 46.2816 69.5506 41.6732 69.5506C37.0648 69.5506 35.7093 66.8384 30.2877 66.8384C25.0015 66.8384 23.1039 69.6862 18.7666 69.6862C14.4292 69.6862 11.4473 65.7536 8.05873 60.8717C3.58584 54.0913 1.01054 46.2261 0.875 37.954C0.875 24.5289 9.5497 17.3417 18.2244 17.3417C22.8328 17.3417 26.628 20.3251 29.4744 20.3251C32.1852 20.3251 36.5226 17.2061 41.6732 17.2061C47.0949 17.0705 52.2455 19.647 55.363 24.1221ZM39.2334 11.5106C41.5376 8.79843 42.7575 5.40824 42.8931 1.88244C42.8931 1.47562 42.8931 0.93319 42.7575 0.526367C38.8268 0.93319 35.1672 2.8317 32.5919 5.81506C30.2876 8.3916 28.9322 11.6462 28.7967 15.172C28.7967 15.5788 28.7967 15.9856 28.9322 16.3924C29.2033 16.3924 29.6099 16.5281 29.881 16.5281C33.5407 16.2568 36.9292 14.3583 39.2334 11.5106Z" fill="black"/>
</g>
<defs>
<clipPath id="clip0_156_4113">
<rect width="56.25" height="69.1598" fill="white" transform="translate(0.875 0.526367)"/>
</clipPath>
</defs>
</svg>
