<svg width="25" height="24" viewBox="0 0 25 24" fill="none" xmlns="http://www.w3.org/2000/svg">
<g clip-path="url(#clip0_260_4122)">
<path d="M24.1819 12.0003C24.1819 5.37285 18.8094 0.000272751 12.1819 0.000272751C5.55452 0.000272751 0.181946 5.37285 0.181946 12.0003C0.181946 17.9898 4.57017 22.9543 10.3069 23.8545V15.469H7.26007V12.0003H10.3069V9.35652C10.3069 6.34902 12.0985 4.68777 14.8395 4.68777C16.1524 4.68777 17.5257 4.92215 17.5257 4.92215V7.87527H16.0125C14.5218 7.87527 14.0569 8.80028 14.0569 9.74926V12.0003H17.3851L16.853 15.469H14.0569V23.8545C19.7937 22.9543 24.1819 17.9898 24.1819 12.0003Z" fill="white"/>
</g>
<defs>
<clipPath id="clip0_260_4122">
<rect width="24" height="24" fill="white" transform="translate(0.181824)"/>
</clipPath>
</defs>
</svg>
