<svg width="25" height="24" viewBox="0 0 25 24" fill="none" xmlns="http://www.w3.org/2000/svg">
<path d="M7.21186 0.0839251C5.93506 0.144165 5.06314 0.347925 4.3009 0.647445C3.51202 0.954885 2.84338 1.36745 2.1781 2.03513C1.51282 2.70281 1.10314 3.37193 0.797862 4.16201C0.502422 4.92593 0.302262 5.79857 0.245862 7.07609C0.189462 8.35361 0.176982 8.76425 0.183222 12.023C0.189462 15.2817 0.203862 15.6902 0.265782 16.9703C0.326742 18.2469 0.529782 19.1186 0.829302 19.881C1.13722 20.6699 1.5493 21.3383 2.21722 22.0038C2.88514 22.6694 3.55378 23.0781 4.34578 23.3838C5.10898 23.6788 5.98186 23.8799 7.25914 23.9358C8.53642 23.9918 8.94754 24.0047 12.2053 23.9985C15.4631 23.9922 15.8732 23.9778 17.1531 23.9171C18.4331 23.8564 19.3002 23.6519 20.0629 23.3538C20.8518 23.0452 21.5207 22.6338 22.1857 21.9657C22.8507 21.2975 23.2602 20.6279 23.5652 19.8374C23.8609 19.0742 24.0618 18.2013 24.1172 16.925C24.1731 15.6441 24.1863 15.2351 24.1801 11.9769C24.1739 8.71865 24.1592 8.31017 24.0985 7.03049C24.0378 5.75081 23.8345 4.88177 23.5352 4.11881C23.2268 3.32993 22.8152 2.66201 22.1475 1.99601C21.4799 1.33001 20.8098 0.920805 20.0195 0.616485C19.2558 0.321045 18.3834 0.119685 17.1061 0.0644851C15.8288 0.00928514 15.4177 -0.00487487 12.1587 0.00136513C8.89978 0.00760513 8.49178 0.0215251 7.21186 0.0839251ZM7.35202 21.777C6.18202 21.7262 5.54674 21.5318 5.12338 21.369C4.56274 21.153 4.16338 20.8919 3.74146 20.4741C3.31954 20.0562 3.06034 19.6554 2.84146 19.096C2.67706 18.6726 2.47906 18.0381 2.42434 16.8681C2.36482 15.6035 2.35234 15.2238 2.34538 12.0201C2.33842 8.81633 2.35066 8.43713 2.4061 7.17209C2.45602 6.00305 2.65162 5.36705 2.8141 4.94393C3.0301 4.38257 3.29026 3.98393 3.70906 3.56225C4.12786 3.14057 4.52746 2.88089 5.08738 2.66201C5.51026 2.49689 6.14482 2.30057 7.31434 2.24489C8.57986 2.18489 8.95906 2.17289 12.1623 2.16593C15.3656 2.15897 15.7458 2.17097 17.0118 2.22665C18.1808 2.27753 18.8171 2.47121 19.2397 2.63465C19.8006 2.85065 20.1997 3.11009 20.6214 3.52961C21.0431 3.94913 21.303 4.34729 21.5219 4.90841C21.6872 5.33009 21.8835 5.96441 21.9387 7.13465C21.999 8.40017 22.0127 8.77961 22.0184 11.9826C22.0242 15.1857 22.0129 15.5661 21.9575 16.8306C21.9063 18.0006 21.7124 18.6362 21.5495 19.06C21.3335 19.6204 21.0731 20.02 20.654 20.4414C20.235 20.8629 19.8359 21.1226 19.2757 21.3414C18.8533 21.5063 18.218 21.7031 17.0495 21.7588C15.7839 21.8183 15.4047 21.8308 12.2003 21.8378C8.99578 21.8447 8.61778 21.8318 7.35226 21.777M17.1347 5.58641C17.1351 5.87123 17.2201 6.14952 17.3787 6.38607C17.5374 6.62262 17.7626 6.80682 18.0259 6.91535C18.2893 7.02389 18.5789 7.0519 18.8581 6.99583C19.1374 6.93976 19.3937 6.80214 19.5948 6.60037C19.7958 6.3986 19.9325 6.14174 19.9875 5.86228C20.0426 5.58283 20.0135 5.29333 19.904 5.03039C19.7945 4.76746 19.6095 4.5429 19.3723 4.38512C19.1352 4.22735 18.8566 4.14344 18.5718 4.14401C18.19 4.14477 17.8241 4.29715 17.5546 4.56764C17.2851 4.83813 17.134 5.20458 17.1347 5.58641ZM6.02026 12.0119C6.02698 15.4151 8.79082 18.1677 12.1933 18.1612C15.5958 18.1547 18.3503 15.3911 18.3438 11.9879C18.3373 8.58473 15.5727 5.83145 12.1698 5.83817C8.76682 5.84489 6.01378 8.60921 6.02026 12.0119ZM8.1817 12.0076C8.18014 11.2165 8.41321 10.4426 8.85144 9.78395C9.28967 9.12528 9.91338 8.61134 10.6437 8.30714C11.374 8.00294 12.1781 7.92213 12.9544 8.07494C13.7306 8.22775 14.4441 8.6073 15.0047 9.16562C15.5652 9.72393 15.9476 10.4359 16.1034 11.2115C16.2593 11.9872 16.1817 12.7916 15.8804 13.5231C15.5791 14.2547 15.0676 14.8804 14.4107 15.3212C13.7537 15.7621 12.9808 15.9982 12.1897 15.9998C11.6644 16.0009 11.144 15.8985 10.6583 15.6984C10.1725 15.4984 9.73095 15.2046 9.35876 14.8339C8.98657 14.4632 8.69105 14.0228 8.48909 13.5378C8.28713 13.0529 8.18268 12.5329 8.1817 12.0076Z" fill="white"/>
</svg>
