<svg width="76" height="26" viewBox="0 0 76 26" fill="none" xmlns="http://www.w3.org/2000/svg">
<g clip-path="url(#clip0_156_4094)">
<path d="M71.1586 3.65918H4.03491V22.4933H71.1586V3.65918Z" fill="#EBEAEA"/>
<path d="M0.083313 25.1875V0.9375H75.0833V25.1875H0.083313ZM15.7285 16.1342H9.76073V6.03H7.0188V18.5592H15.7285V16.1342ZM24.8414 10.395C23.9543 9.34417 22.664 8.77833 21.0511 8.77833C18.1478 8.77833 15.9704 10.9608 15.9704 13.79C15.9704 16.7 18.1478 18.8017 21.3736 18.8017C23.1478 18.8017 25.0027 17.9125 25.8091 16.9425L24.1156 15.6492C22.9865 16.4575 22.3414 16.7 21.3736 16.7C20.4865 16.7 19.7607 16.3767 19.2769 15.8917L26.0511 13.0625C25.8898 12.0117 25.4865 11.0417 24.8414 10.395ZM36.6962 12.5775C36.6962 10.395 35.0833 8.77833 32.8253 8.77833C31.6962 8.77833 30.4865 9.26333 29.6801 10.3142V8.94H27.0188V18.5592H29.6801V13.0625C29.6801 12.0925 30.4059 11.0417 31.8575 11.0417C32.9865 11.0417 34.1156 11.7692 34.1156 13.0625V18.5592H36.7769V12.5775H36.6962ZM42.9059 8.77833C40.0027 8.77833 37.7446 10.9608 37.7446 13.79C37.7446 16.6192 40.0027 18.8017 42.9059 18.8017C45.8091 18.8017 48.0672 16.6192 48.0672 13.79C48.0672 10.9608 45.8091 8.77833 42.9059 8.77833ZM55.4059 8.94L52.9865 15.4875L50.5672 8.94H47.664L51.6156 18.5592H54.5188L58.4704 8.94H55.4059ZM63.2285 8.77833C60.3252 8.77833 58.0672 10.9608 58.0672 13.79C58.0672 16.6192 60.3252 18.8017 63.2285 18.8017C66.1317 18.8017 68.3898 16.6192 68.3898 13.79C68.3898 10.9608 66.1317 8.77833 63.2285 8.77833ZM63.2285 16.4575C61.7769 16.4575 60.6478 15.245 60.6478 13.7092C60.6478 12.0925 61.6962 10.9608 63.2285 10.9608C64.6801 10.9608 65.8091 12.1733 65.8091 13.7092C65.8091 15.3258 64.6801 16.4575 63.2285 16.4575ZM42.9059 16.4575C41.4543 16.4575 40.3252 15.245 40.3252 13.7092C40.3252 12.0925 41.3736 10.9608 42.9059 10.9608C44.3575 10.9608 45.4865 12.1733 45.4865 13.7092C45.4865 15.3258 44.3575 16.4575 42.9059 16.4575ZM19.1156 11.85C19.5994 11.2842 20.2446 10.88 21.1317 10.88C22.0994 10.88 22.8253 11.4458 23.1478 12.2542L18.5511 14.1942C18.3898 13.1433 18.7123 12.4158 19.1156 11.85Z" fill="black"/>
</g>
<defs>
<clipPath id="clip0_156_4094">
<rect width="75" height="24.25" fill="white" transform="translate(0.083313 0.9375)"/>
</clipPath>
</defs>
</svg>
