<svg width="23" height="24" viewBox="0 0 23 24" fill="none" xmlns="http://www.w3.org/2000/svg">
<g clip-path="url(#clip0_260_4116)">
<path d="M19.3211 4.8106C17.931 3.96779 16.9285 2.61871 16.6153 1.04688C16.548 0.707352 16.5105 0.357589 16.5105 0H12.0748L12.0677 16.5358C11.9932 18.3875 10.3546 19.8739 8.34646 19.8739C7.72195 19.8739 7.13432 19.7288 6.61659 19.4754C5.42969 18.8944 4.6175 17.7374 4.6175 16.4057C4.6175 14.4932 6.29042 12.937 8.34582 12.937C8.72958 12.937 9.09782 12.996 9.446 13.0971V8.88494C9.08552 8.83919 8.71923 8.8109 8.34582 8.8109C3.84413 8.8109 0.181824 12.2176 0.181824 16.4057C0.181824 18.9751 1.56158 21.2489 3.66746 22.6238C4.9935 23.4901 6.60688 24 8.34646 24C12.8481 24 16.5105 20.5933 16.5105 16.4057V8.02047C18.25 9.18173 20.3818 9.8662 22.6818 9.8662V5.74009C21.4431 5.74009 20.2893 5.39755 19.3211 4.8106Z" fill="white"/>
</g>
<defs>
<clipPath id="clip0_260_4116">
<rect width="22.5" height="24" fill="white" transform="translate(0.181824)"/>
</clipPath>
</defs>
</svg>
