<svg width="96" height="26" viewBox="0 0 96 26" fill="none" xmlns="http://www.w3.org/2000/svg">
<g clip-path="url(#clip0_156_4101)">
<path fill-rule="evenodd" clip-rule="evenodd" d="M86.4314 20.8616H78.2688C73.6805 20.8616 73.2722 17.0847 73.2722 15.9277C73.2722 14.7742 73.6805 10.9939 78.2688 10.9939H86.4314C91.0196 10.9939 91.4279 14.7707 91.4279 15.9277C91.4245 17.0847 91.0196 20.8616 86.4314 20.8616ZM86.4314 6.8418H78.2688C69.7878 6.8418 69.0335 13.8013 69.0335 15.9312C69.0335 18.0576 69.7878 25.0206 78.2688 25.0206H86.4314C94.9124 25.0206 95.6701 18.0611 95.6701 15.9312C95.6667 13.8013 94.9124 6.8418 86.4314 6.8418Z" fill="#242933"/>
<path fill-rule="evenodd" clip-rule="evenodd" d="M67.3933 7.26562H64.7463C63.6148 7.26562 63.3795 7.4602 62.9435 8.10994C62.5075 8.75968 54.94 20.3612 54.94 20.3612C54.6978 20.719 54.4418 20.8615 54.1234 20.8615C53.8051 20.8615 53.549 20.7156 53.3068 20.3612C53.3068 20.3612 45.7394 8.75968 45.3034 8.10994C44.8674 7.4602 44.6321 7.26562 43.5006 7.26562H40.8535C40.2445 7.26562 39.9677 7.74511 40.3483 8.32883C40.7324 8.91256 49.3864 22.1088 49.3864 22.1088C50.7878 24.1797 51.8189 25.017 54.1234 25.017C56.4279 25.017 57.4556 24.1797 58.8605 22.1088C58.8605 22.1088 67.5144 8.91256 67.8985 8.32883C68.2791 7.74511 68.0023 7.26562 67.3933 7.26562Z" fill="#242933"/>
<path fill-rule="evenodd" clip-rule="evenodd" d="M32.2584 8.39137C32.2584 7.58528 32.5767 7.26562 33.3795 7.26562H35.3795C36.1823 7.26562 36.5006 7.58528 36.5006 8.39137V23.8913C36.5006 24.6974 36.1823 25.017 35.3795 25.017H33.3795C32.5767 25.017 32.2584 24.6974 32.2584 23.8913V8.39137Z" fill="#242933"/>
<path fill-rule="evenodd" clip-rule="evenodd" d="M27.8985 7.26562H25.2515C24.12 7.26562 23.8847 7.4602 23.4487 8.10994C23.0127 8.75968 15.4452 20.3612 15.4452 20.3612C15.203 20.719 14.947 20.8615 14.6286 20.8615C14.3103 20.8615 14.0542 20.7156 13.812 20.3612C13.812 20.3612 6.24454 8.75968 5.80855 8.10994C5.37257 7.4602 5.13727 7.26562 4.00578 7.26562H1.36219C0.683985 7.26562 0.476373 7.74511 0.856996 8.32883C1.24108 8.91256 9.89506 22.1088 9.89506 22.1088C11.2964 24.1797 12.3276 25.017 14.6321 25.017C16.9366 25.017 17.9643 24.1797 19.3691 22.1088C19.3691 22.1088 28.0231 8.91256 28.4072 8.32883C28.7878 7.74511 28.5802 7.26562 27.8985 7.26562Z" fill="#242933"/>
<path fill-rule="evenodd" clip-rule="evenodd" d="M32.075 3.71775C31.4245 3.06454 31.4245 2.54336 32.075 1.89015L33.4695 0.48991C34.12 -0.163303 34.639 -0.163303 35.2895 0.48991L36.684 1.89015C37.3345 2.54336 37.3345 3.06454 36.684 3.71775L35.2895 5.11799C34.639 5.77121 34.12 5.77121 33.4695 5.11799L32.075 3.71775Z" fill="#242933"/>
</g>
<defs>
<clipPath id="clip0_156_4101">
<rect width="95" height="25.0167" fill="white" transform="translate(0.666687)"/>
</clipPath>
</defs>
</svg>
